<?xml version="1.0" encoding="UTF-8" standalone="no"?>
<svg
   viewBox="118.681 0 50.000001 50.000001"
   version="1.1"
   id="svg21"
   sodipodi:docname="zrm.svg"
   inkscape:version="1.1.1 (3bf5ae0d25, 2021-09-20)"
   width="50"
   height="50"
   xmlns:inkscape="http://www.inkscape.org/namespaces/inkscape"
   xmlns:sodipodi="http://sodipodi.sourceforge.net/DTD/sodipodi-0.dtd"
   xmlns="http://www.w3.org/2000/svg"
   xmlns:svg="http://www.w3.org/2000/svg">
  <sodipodi:namedview
     id="namedview23"
     pagecolor="#505050"
     bordercolor="#eeeeee"
     borderopacity="1"
     inkscape:pageshadow="0"
     inkscape:pageopacity="0"
     inkscape:pagecheckerboard="0"
     showgrid="false"
     inkscape:zoom="9.5150836"
     inkscape:cx="32.212013"
     inkscape:cy="16.762859"
     inkscape:window-width="1920"
     inkscape:window-height="1017"
     inkscape:window-x="-8"
     inkscape:window-y="-8"
     inkscape:window-maximized="1"
     inkscape:current-layer="svg21"
     width="50px" />
  <defs
     id="defs4">
    <clipPath
       clipPathUnits="userSpaceOnUse"
       id="clipPath4317">
      <path
         d="M 0,841.89 H 595.275 V 0 H 0 Z"
         id="path4319" />
    </clipPath>
  </defs>
  <path
     id="rect49"
     style="fill:#ef2f2c;fill-opacity:1;fill-rule:evenodd"
     d="M 14 0 C 6.244 0 0 6.244 0 14 L 0 36 C 0 43.756 6.244 50 14 50 L 36 50 C 43.756 50 50 43.756 50 36 L 50 14 C 50 6.244 43.756 0 36 0 L 14 0 z M 42.244141 5.5 L 43.384766 5.5 C 43.384766 11.539599 41.752097 16.628676 38.529297 20.626953 C 35.481927 24.407222 30.90924 27.333735 24.9375 29.326172 L 24.560547 28.248047 C 36.459087 24.282885 42.244141 16.841594 42.244141 5.5 z M 45.033203 5.5 L 46.458984 5.5 C 46.458984 10.455073 45.464786 14.84217 43.503906 18.603516 C 44.207206 20.617635 44.595703 22.78251 44.595703 25.037109 C 44.595703 27.634295 44.084182 30.109757 43.164062 32.375 L 26 32.375 L 25.462891 30.835938 C 38.628081 26.331863 45.033203 18.042023 45.033203 5.5 z M 25.085938 5.5273438 C 30.510497 5.5273438 35.420065 7.7446673 38.953125 11.318359 L 11.220703 11.318359 C 14.756133 7.7446673 19.661387 5.5273438 25.085938 5.5273438 z M 6.8574219 18.089844 L 22.884766 18.089844 L 23.353516 19.585938 C 10.989386 24.175955 4.9667969 32.340774 4.9667969 44.5 L 3.5410156 44.5 C 3.5410156 39.466869 4.5655106 35.020307 6.5878906 31.21875 C 5.9382106 29.276381 5.578125 27.199064 5.578125 25.037109 C 5.578125 22.588943 6.0334919 20.247857 6.8574219 18.089844 z M 23.830078 21.107422 L 24.171875 22.197266 C 13.130775 26.263351 7.7539062 33.569982 7.7539062 44.5 L 6.6152344 44.5 C 6.6152344 38.459613 8.2486931 33.369748 11.470703 29.373047 C 14.303613 25.858095 18.457958 23.082119 23.830078 21.107422 z M 11.625 39.097656 L 38.550781 39.097656 C 35.048871 42.439541 30.311391 44.494141 25.087891 44.494141 C 19.865971 44.494141 15.12534 42.439541 11.625 39.097656 z "
     transform="translate(118.681)" />
</svg>
