<?xml version="1.0" encoding="UTF-8" standalone="no"?>
<svg
   viewBox="0 2.632 49.999999 50.000002"
   version="1.1"
   id="svg3"
   sodipodi:docname="som.svg"
   inkscape:version="1.1.1 (3bf5ae0d25, 2021-09-20)"
   width="50"
   height="50"
   xmlns:inkscape="http://www.inkscape.org/namespaces/inkscape"
   xmlns:sodipodi="http://sodipodi.sourceforge.net/DTD/sodipodi-0.dtd"
   xmlns="http://www.w3.org/2000/svg"
   xmlns:svg="http://www.w3.org/2000/svg">
  <defs
     id="defs7" />
  <sodipodi:namedview
     id="namedview5"
     pagecolor="#505050"
     bordercolor="#eeeeee"
     borderopacity="1"
     inkscape:pageshadow="0"
     inkscape:pageopacity="0"
     inkscape:pagecheckerboard="0"
     showgrid="false"
     inkscape:zoom="8"
     inkscape:cx="-2.1875"
     inkscape:cy="3.1875"
     inkscape:window-width="1920"
     inkscape:window-height="1017"
     inkscape:window-x="-8"
     inkscape:window-y="-8"
     inkscape:window-maximized="1"
     inkscape:current-layer="svg3" />
  <path
     id="rect137"
     style="fill:#005eb5;fill-rule:evenodd;stroke-width:1.54127"
     inkscape:label="rect137"
     d="M 14 0 C 6.244 3.5527137e-15 0 6.244 0 14 L 0 36 C 0 43.756 6.244 50 14 50 L 36 50 C 43.756 50 50 43.756 50 36 L 50 14 C 50 6.244 43.756 0 36 0 L 14 0 z M 21.507812 1.8242188 L 24.996094 1.8242188 L 28.486328 1.8242188 C 29.226328 1.8242188 29.824219 2.4231094 29.824219 3.1621094 L 29.832031 9.0605469 C 29.832031 9.8025469 30.434687 10.404297 31.179688 10.404297 L 38.376953 10.390625 C 39.118953 10.390625 39.716797 10.994328 39.716797 11.736328 L 39.708984 16.890625 C 39.708984 17.630625 40.312688 18.236328 41.054688 18.236328 L 44.886719 18.232422 C 45.62172 18.230422 46.224609 18.832266 46.224609 19.572266 L 46.224609 30.060547 C 46.224609 30.810547 45.627624 31.40625 44.890625 31.40625 L 41.046875 31.40625 C 40.307874 31.40625 39.703125 32.015813 39.703125 32.757812 L 39.712891 38.28125 C 39.712891 39.02325 39.118953 39.625 38.376953 39.625 L 35.8125 39.625 C 35.0725 39.625 34.472656 40.227609 34.472656 40.974609 L 34.46875 46.830078 C 34.46875 47.569078 33.860906 48.173828 33.128906 48.173828 L 27.677734 48.173828 C 26.935734 48.173828 26.341797 47.569078 26.341797 46.830078 L 26.349609 40.980469 C 26.347609 40.232469 25.746765 39.626953 25.009766 39.626953 L 25.003906 39.626953 L 24.994141 39.626953 C 24.254141 39.626953 23.654297 40.232469 23.654297 40.980469 L 23.664062 46.830078 C 23.664063 47.572078 23.069079 48.175781 22.330078 48.175781 L 16.876953 48.175781 C 16.145954 48.175781 15.539062 47.572031 15.539062 46.832031 L 15.53125 40.978516 C 15.53125 40.231516 14.928405 39.626953 14.191406 39.626953 L 11.625 39.626953 C 10.883 39.626953 10.291016 39.028203 10.291016 38.283203 L 10.296875 32.759766 C 10.296875 32.016766 9.6950781 31.412109 8.9550781 31.412109 L 5.1113281 31.412109 C 4.3723281 31.412109 3.7753906 30.814453 3.7753906 30.064453 L 3.7753906 19.580078 C 3.7753906 18.838078 4.3753281 18.235381 5.1113281 18.238281 L 8.9453125 18.238281 C 9.6843125 18.238281 10.287109 17.636531 10.287109 16.894531 L 10.277344 11.738281 C 10.277344 10.998281 10.877141 10.394531 11.619141 10.394531 L 18.816406 10.404297 C 19.561406 10.404297 20.162109 9.8045469 20.162109 9.0605469 L 20.167969 3.1640625 C 20.167969 2.4240625 20.767813 1.8242188 21.507812 1.8242188 z M 36.677734 24.78125 C 36.284859 24.775625 35.924001 24.86011 35.8125 25.099609 C 35.1205 26.58661 34.152218 28.877734 31.449219 30.677734 C 28.919219 32.361734 26.167406 33.285385 22.441406 33.359375 C 22.024406 33.366374 22.087891 33.730469 22.087891 33.730469 L 22.027344 34.382812 C 22.027344 34.382813 22.034813 34.680359 22.382812 34.693359 C 24.632813 34.788358 29.908329 34.559407 33.361328 32.316406 C 36.731328 30.127407 37.857689 28.094906 38.554688 26.628906 C 38.851688 26.004906 38.199233 25.219048 37.740234 24.998047 C 37.496234 24.881047 37.070609 24.786875 36.677734 24.78125 z "
     transform="translate(0,2.632)" />
</svg>
